<svg id="Layer_1" data-name="Layer 1" xmlns="http://www.w3.org/2000/svg" viewBox="0 0 174.36 230.24"><defs><style>.cls-1{fill:#211f20;}</style></defs><path class="cls-1" d="M174.17,169.87V212.2a.5.5,0,0,1-.23.42l-86.22,55a.5.5,0,0,1-.77-.42V224.85a.5.5,0,0,1,.23-.42l86.22-55a.5.5,0,0,1,.77.42Z" transform="translate(-86.95 -37.43)"/><path class="cls-1" d="M174,168.5l0-43.07a2,2,0,0,1,1.78.31q36.67,23.74,84.64,54.87a1.93,1.93,0,0,1,.87,1.6v41.64a.7.7,0,0,1-1.09.59L174,168.5Z" transform="translate(-86.95 -37.43)"/><path class="cls-1" d="M174,80.59l0-43.07a2,2,0,0,1,1.78.31q36.67,23.74,84.64,54.87a1.93,1.93,0,0,1,.87,1.6v41.64a.7.7,0,0,1-1.09.59L174,80.59Z" transform="translate(-86.95 -37.43)"/><path class="cls-1" d="M174.17,82.2v42.33a.5.5,0,0,1-.23.42l-86.22,55a.5.5,0,0,1-.77-.42V137.18a.5.5,0,0,1,.23-.42l86.22-55a.5.5,0,0,1,.77.42Z" transform="translate(-86.95 -37.43)"/></svg>