<svg id="Layer_1" data-name="Layer 1" xmlns="http://www.w3.org/2000/svg" viewBox="0 0 490.39 57.54"><path d="M127.57,31.27a1.88,1.88,0,0,1,.61-.23,35.59,35.59,0,0,1,10.74.51q13.49,2.46,19,13.74c3.22,6.64,3.29,16.05,1,22.89q-5.34,16.06-22.46,19.52A31.53,31.53,0,0,1,122,87.36q-13.76-3.57-18-17.35c-2.23-7.15-2.26-15.49.58-22.23q4.88-11.61,17.9-15.66a13.2,13.2,0,0,1,4.75-.77.7.7,0,0,0,.4-.08m-1.23,3.21a5.1,5.1,0,0,0-2.45.42C116.89,37,113,42,111.18,49.13c-2,8.08-.61,18.69,3.58,25.8q6.85,11.63,20.38,10a17,17,0,0,0,14.57-10.81c3.94-9.12,3.62-22.93-2.06-31.46a18.81,18.81,0,0,0-13-8.28,24,24,0,0,0-7.25-.26,1,1,0,0,0-.59.25.43.43,0,0,1-.47.07Z" transform="translate(-55.28 -30.83)"/><path d="M378.65,45.12,376.78,45a.3.3,0,0,1-.29-.3L376.35,39a1.25,1.25,0,0,0-.45-1c-4.87-4.14-11.26-5.28-17-2.35A8.88,8.88,0,0,0,355,39.82c-2.66,5.41-1.51,12.22,5,14a28.81,28.81,0,0,0,4.41.9,64.75,64.75,0,0,1,9.91,1.88Q383,59,383.55,67.89c.68,10.33-7.24,17.76-16.74,19.79q-9,1.93-19.63-1.7a.83.83,0,0,1-.56-.84l.81-11.36a.52.52,0,0,1,.55-.46l1.15.09a.67.67,0,0,1,.64.64c.09,1.57.16,2.93.22,4.1.16,3.18,2.29,4.47,5.1,5.59a18.91,18.91,0,0,0,12.47.78q8.67-2.43,9.38-11.37c.62-7.84-4.49-10.14-11.12-11.15a65.37,65.37,0,0,1-9.95-2.08c-6.67-2.24-9.5-8.12-8.66-14.86a16,16,0,0,1,13.21-13.65,33.5,33.5,0,0,1,4.46-.53q6-.22,14.31,2.73a1,1,0,0,1,.65,1l-.73,10.13a.44.44,0,0,1-.46.4Z" transform="translate(-55.28 -30.83)"/><path d="M212.41,86.73a.5.5,0,0,1-.49-.5V84.82a.44.44,0,0,1,.43-.44l2.27,0a3.5,3.5,0,0,0,2.8-1.48A60.32,60.32,0,0,0,220.84,76q9.81-21.64,19-43.42a1.74,1.74,0,0,1,3.22,0q9.51,22.49,18.44,43.5c.62,1.46,1.57,3.47,2.82,6,1.06,2.16,2.95,2.33,5.13,2.25a.44.44,0,0,1,.45.43v1.53a.4.4,0,0,1-.4.4h-19.8a.52.52,0,0,1-.53-.52V85a.44.44,0,0,1,.42-.44l5.15-.4a.93.93,0,0,0,.65-.34,2.21,2.21,0,0,0,.32-2.34q-1.27-3.39-5.11-12.53a.45.45,0,0,0-.41-.26H228.85a.65.65,0,0,0-.59.38q-2.79,6.45-4.89,11.87a2.22,2.22,0,0,0,.44,2.75,1.22,1.22,0,0,0,.55.29,12.36,12.36,0,0,0,4.85.39.52.52,0,0,1,.58.52v1.44a.44.44,0,0,1-.43.44h-17m17.47-21.59a.25.25,0,0,0,.23.35l18.71,0a.24.24,0,0,0,.22-.35l-9.3-22.48a.25.25,0,0,0-.47,0l-9.39,22.45Z" transform="translate(-55.28 -30.83)"/><path d="M413.69,86.73a.49.49,0,0,1-.49-.5V84.82a.44.44,0,0,1,.43-.44l2.27,0a3.53,3.53,0,0,0,2.8-1.48A60.32,60.32,0,0,0,422.12,76q9.79-21.64,19-43.42a1.74,1.74,0,0,1,3.22,0q9.51,22.49,18.44,43.5c.63,1.46,1.56,3.47,2.81,6,1.06,2.16,3,2.33,5.14,2.25a.44.44,0,0,1,.45.43v1.53a.41.41,0,0,1-.41.4H451a.52.52,0,0,1-.53-.52V85a.44.44,0,0,1,.42-.44l5.15-.4a.91.91,0,0,0,.65-.34,2.21,2.21,0,0,0,.32-2.34q-1.28-3.39-5.12-12.53a.43.43,0,0,0-.4-.26H430.12a.64.64,0,0,0-.58.38q-2.79,6.45-4.9,11.87a2.24,2.24,0,0,0,.44,2.75,1.33,1.33,0,0,0,.55.29,12.42,12.42,0,0,0,4.86.39.52.52,0,0,1,.58.52v1.44a.44.44,0,0,1-.44.44H413.69m17.46-21.59a.26.26,0,0,0,.24.35l18.7,0a.25.25,0,0,0,.23-.35L441,42.69a.25.25,0,0,0-.46,0l-9.4,22.45Z" transform="translate(-55.28 -30.83)"/><path d="M77.51,84.37a.34.34,0,0,1,.35.34v1.64a.37.37,0,0,1-.37.38H55.67a.39.39,0,0,1-.39-.39V84.77a.42.42,0,0,1,.44-.43,14.94,14.94,0,0,0,2.72,0,8,8,0,0,1,2.1-.32c1.37-.1,2.09-1,2.13-2.6q.61-20.72.06-41.46a21.72,21.72,0,0,0-.31-3.32,1.82,1.82,0,0,0-1.67-1.48l-5.14-.37a.37.37,0,0,1-.33-.37v-1.5a.43.43,0,0,1,.42-.43H83.58A25.27,25.27,0,0,1,87,32.8a30.92,30.92,0,0,1,3.39.66c10.47,3.59,10.62,15.1,3.7,21.94q-6.83,6.74-18,5a.87.87,0,0,1-.72-.61l-.55-1.67a.36.36,0,0,1,.45-.46q8.48,2.41,13.12-3C92.3,50.1,91.89,41.84,87.05,38,82.9,34.75,75.83,35.23,71,36.82a.66.66,0,0,0-.45.56c-.2,1.93-.3,4.55-.32,7.88q-.1,15.8,0,29.09c0,3.15.13,5.66.33,7.52a2.08,2.08,0,0,0,1.72,2,19.15,19.15,0,0,0,5.28.49Z" transform="translate(-55.28 -30.83)"/><path d="M207.58,73.74l-.89,12.51a.53.53,0,0,1-.53.48H168.77a.82.82,0,0,1-.42-1.53l2.32-1.34a.71.71,0,0,0,.35-.51,75.94,75.94,0,0,0,.56-9q.22-19.75,0-34.19a19.74,19.74,0,0,0-.4-3.68,1.67,1.67,0,0,0-1.5-1.31l-5.27-.38a.44.44,0,0,1-.41-.44V32.94a.46.46,0,0,1,.45-.46h21.66a.58.58,0,0,1,.57.58V34.2a.43.43,0,0,1-.39.44l-5.12.59a2,2,0,0,0-1.68,1.55,20.24,20.24,0,0,0-.42,3.56q-.1,7.27,0,37.15c0,1.55.07,3.43.21,5.66a.45.45,0,0,0,.45.43q15.73,0,16.9,0a23.79,23.79,0,0,0,6.31-1.13.65.65,0,0,0,.45-.47l2.16-8.3a.41.41,0,0,1,.39-.3h1.34a.35.35,0,0,1,.35.37Z" transform="translate(-55.28 -30.83)"/><path d="M273.84,32.49q17.64,0,28.17,0a24,24,0,0,1,4.43.47,22.26,22.26,0,0,1,4.28,1.15,9.81,9.81,0,0,1,4.4,3.85c4.42,6.94.56,15.23-6.34,18.79A23.88,23.88,0,0,1,301.84,59a.46.46,0,0,0-.29.73q11.1,14.56,15.19,20c1.89,2.53,3.65,5,6.73,4.56a.49.49,0,0,1,.58.49v1.33a.56.56,0,0,1-.56.56h-9.82a1,1,0,0,1-.79-.4c-6.12-8.1-13.59-18.88-21.21-27.59a.91.91,0,0,1,1.22-1.35,2.05,2.05,0,0,0,1.41.31c.64-.07,1.15-.11,1.52-.14A19.45,19.45,0,0,0,303,55.87a10.3,10.3,0,0,0,6.06-9q.61-8.66-7.72-10.7a21.59,21.59,0,0,0-12.17.53.57.57,0,0,0-.38.46,48.52,48.52,0,0,0-.31,5.92q-.11,27.92,0,35.4c0,2.17-.31,5.47,2.85,5.48a2.2,2.2,0,0,1,1.19.37,29,29,0,0,0,3,0,.53.53,0,0,1,.55.53v1.26a.58.58,0,0,1-.57.57H273.87a.42.42,0,0,1-.42-.41V84.85a.31.31,0,0,1,.27-.31l5.15-.59A2.22,2.22,0,0,0,280.81,82a33.14,33.14,0,0,0,.24-3.75q.12-24.12-.08-40.09a3.51,3.51,0,0,0-1-2.53,1.45,1.45,0,0,0-.85-.41l-5.34-.61a.32.32,0,0,1-.3-.33V32.89a.39.39,0,0,1,.39-.4Z" transform="translate(-55.28 -30.83)"/><path d="M398.34,32.47h10.89a.44.44,0,0,1,.41.43l0,1.52a.45.45,0,0,1-.43.42,16,16,0,0,0-5.37.56A3,3,0,0,0,402,38.56q0,11.34,0,21t0,21a3,3,0,0,0,1.85,3.16,16,16,0,0,0,5.37.56.42.42,0,0,1,.43.42l0,1.52a.42.42,0,0,1-.41.42H387.45a.42.42,0,0,1-.42-.42l0-1.52a.43.43,0,0,1,.44-.42,15.92,15.92,0,0,0,5.36-.56,3,3,0,0,0,1.85-3.16q0-11.34,0-21t0-21a3,3,0,0,0-1.85-3.16,16,16,0,0,0-5.36-.56.43.43,0,0,1-.44-.42l0-1.52a.41.41,0,0,1,.41-.42Z" transform="translate(-55.28 -30.83)"/><path d="M530.83,40.89q-12.24,25.55-14.68,30.67-3.95,8.32-6.73,15.35a1,1,0,0,1-1.87.06l-21.41-44.6a.19.19,0,0,0-.35.07q-.23,22,.16,38.65c0,1.59.67,2.55,1.92,2.89a14.11,14.11,0,0,0,4.89.35.57.57,0,0,1,.61.57v1.27a.56.56,0,0,1-.56.56H475.19a.56.56,0,0,1-.56-.56V84.84a.52.52,0,0,1,.57-.51,17.43,17.43,0,0,0,3.71-.1q3.16-.32,3.22-3.69.24-18.36.09-36.66,0-3.57-.38-6.77a2,2,0,0,0-1.5-1.77,14.41,14.41,0,0,0-5.1-.48.55.55,0,0,1-.62-.55V33a.55.55,0,0,1,.55-.54h13.58a.78.78,0,0,1,.69.43L509.9,75.52a.28.28,0,0,0,.51,0c8.69-18.16,14.93-30.69,20-42.64a.65.65,0,0,1,.59-.4h14.28a.42.42,0,0,1,.42.42v1.52a.44.44,0,0,1-.49.44,14.52,14.52,0,0,0-5.31.52,2.38,2.38,0,0,0-1.61,2.51q-.59,19.5-.08,42.55a5.22,5.22,0,0,0,.9,2.93,1,1,0,0,0,.58.41,14.21,14.21,0,0,0,5.48.55.48.48,0,0,1,.53.48v1.47a.45.45,0,0,1-.45.45H523.9a.42.42,0,0,1-.43-.42V84.76a.39.39,0,0,1,.44-.4,18.29,18.29,0,0,0,4.54-.28c2-.36,2.45-1.77,2.49-3.64q.27-18.43.14-39.49a.13.13,0,0,0-.25-.06Z" transform="translate(-55.28 -30.83)"/></svg>